<svg width="24" height="24" viewBox="0 0 24 24" fill="none" xmlns="http://www.w3.org/2000/svg">
<path d="M13.6085 5.0519C12.6624 4.31603 11.3376 4.31603 10.3915 5.0519L5.51147 8.84745C4.87328 9.34383 4.5 10.107 4.5 10.9156V16.881C4.5 18.328 5.67301 19.501 7.12 19.501H9.25C9.94036 19.501 10.5 18.9413 10.5 18.251V15.6496C10.5 15.4564 10.5337 15.3499 10.5687 15.2939C10.6946 15.092 10.8628 14.918 11.063 14.7845C11.3402 14.5997 11.6663 14.501 12 14.501C12.3337 14.501 12.6598 14.5997 12.937 14.7845C13.1372 14.918 13.3054 15.092 13.4313 15.2939C13.4663 15.3499 13.5 15.4564 13.5 15.6496V18.251C13.5 18.9413 14.0596 19.501 14.75 19.501H16.88C18.327 19.501 19.5 18.328 19.5 16.881V10.9156C19.5 10.107 19.1267 9.34383 18.4885 8.84745L13.6085 5.0519Z" fill="#4AA8A7"/>
</svg>
