<svg width="24" height="24" viewBox="0 0 24 24" fill="none" xmlns="http://www.w3.org/2000/svg">
<path fill-rule="evenodd" clip-rule="evenodd" d="M16.763 6.5C15.7806 6.5 14.8727 5.97585 14.3815 5.125C13.323 3.29166 10.6768 3.29167 9.61831 5.12501C9.12707 5.97585 8.21923 6.5 7.23676 6.5C5.11982 6.5 3.79674 8.79165 4.8552 10.625C5.34644 11.4758 5.34644 12.5241 4.8552 13.375C3.79672 15.2083 5.11982 17.5 7.23678 17.5C8.21927 17.5 9.12712 18.0241 9.61836 18.875C10.6768 20.7083 13.323 20.7083 14.3815 18.875C14.8727 18.0241 15.7806 17.5 16.7631 17.5C18.88 17.5 20.2031 15.2083 19.1446 13.375C18.6534 12.5242 18.6534 11.4759 19.1446 10.625C20.2031 8.79169 18.88 6.5 16.763 6.5ZM10.1279 12.7039C10.0355 12.458 9.99241 12.1964 10.0011 11.9339C10.0098 11.6714 10.0701 11.4132 10.1786 11.174C10.287 10.9348 10.4416 10.7193 10.6333 10.5398C10.8251 10.3603 11.0503 10.2204 11.2961 10.1279C11.542 10.0355 11.8036 9.99241 12.0661 10.0011C12.3286 10.0098 12.5868 10.0701 12.826 10.1786C13.0652 10.287 13.2807 10.4416 13.4602 10.6333C13.6397 10.8251 13.7796 11.0503 13.8721 11.2961C13.9645 11.542 14.0076 11.8036 13.9989 12.0661C13.9902 12.3286 13.9299 12.5868 13.8214 12.826C13.713 13.0652 13.5584 13.2807 13.3667 13.4602C13.1749 13.6397 12.9497 13.7796 12.7039 13.8721C12.458 13.9645 12.1964 14.0076 11.9339 13.9989C11.6714 13.9902 11.4132 13.9299 11.174 13.8214C10.9348 13.713 10.7193 13.5584 10.5398 13.3667C10.3603 13.1749 10.2204 12.9497 10.1279 12.7039Z" fill="#B6BBC5"/>
</svg>
